<svg xmlns="http://www.w3.org/2000/svg" xmlns:xlink="http://www.w3.org/1999/xlink" width="1080" zoomAndPan="magnify" viewBox="0 0 810 809.999993" height="1080" preserveAspectRatio="xMidYMid meet" version="1.0"><defs><filter x="0%" y="0%" width="100%" height="100%" id="82c0c1da23"><feColorMatrix values="0 0 0 0 1 0 0 0 0 1 0 0 0 0 1 0 0 0 1 0" color-interpolation-filters="sRGB"/></filter><mask id="acffa4b171"><g filter="url(#82c0c1da23)"><rect x="-81" width="972" fill="#000000" y="-80.999999" height="971.999992" fill-opacity="0.8"/></g></mask><clipPath id="9d448d46f8"><rect x="0" width="810" y="0" height="810"/></clipPath><clipPath id="eb3526fa87"><path d="M 314 81 L 497.503906 81 L 497.503906 265 L 314 265 Z M 314 81 " clip-rule="nonzero"/></clipPath></defs><g mask="url(#acffa4b171)"><g transform="matrix(1, 0, 0, 1, 0, 0.000000000000039746)"><g clip-path="url(#9d448d46f8)"><path fill="#ffffff" d="M 405 0 C 181.324219 0 0 181.324219 0 405 C 0 628.675781 181.324219 810 405 810 C 628.675781 810 810 628.675781 810 405 C 810 181.324219 628.675781 0 405 0 " fill-opacity="1" fill-rule="nonzero"/></g></g></g><path fill="#000000" d="M 406.035156 285.90625 C 404.839844 285.90625 403.644531 285.9375 402.449219 285.996094 C 401.257812 286.054688 400.066406 286.144531 398.875 286.261719 C 397.683594 286.378906 396.5 286.527344 395.316406 286.703125 C 394.132812 286.878906 392.957031 287.082031 391.785156 287.316406 C 390.609375 287.550781 389.445312 287.8125 388.285156 288.105469 C 387.125 288.394531 385.972656 288.714844 384.828125 289.0625 C 383.683594 289.410156 382.550781 289.785156 381.425781 290.1875 C 380.300781 290.59375 379.183594 291.023438 378.078125 291.480469 C 376.976562 291.941406 375.882812 292.425781 374.800781 292.9375 C 373.722656 293.449219 372.652344 293.988281 371.597656 294.550781 C 370.542969 295.117188 369.503906 295.707031 368.480469 296.320312 C 367.453125 296.9375 366.445312 297.578125 365.449219 298.242188 C 364.457031 298.90625 363.480469 299.597656 362.519531 300.308594 C 361.558594 301.023438 360.617188 301.761719 359.691406 302.519531 C 358.765625 303.277344 357.863281 304.058594 356.976562 304.863281 C 356.089844 305.667969 355.226562 306.492188 354.378906 307.339844 C 353.535156 308.1875 352.710938 309.054688 351.90625 309.941406 C 351.105469 310.828125 350.324219 311.734375 349.566406 312.660156 C 348.804688 313.585938 348.070312 314.527344 347.359375 315.488281 C 346.644531 316.449219 345.957031 317.429688 345.292969 318.425781 C 344.628906 319.417969 343.988281 320.429688 343.375 321.457031 C 342.761719 322.484375 342.171875 323.527344 341.609375 324.582031 C 341.042969 325.636719 340.507812 326.707031 339.996094 327.789062 C 339.484375 328.871094 339 329.964844 338.542969 331.070312 C 338.082031 332.175781 337.652344 333.292969 337.25 334.417969 C 336.847656 335.546875 336.472656 336.683594 336.125 337.828125 C 335.777344 338.972656 335.457031 340.128906 335.167969 341.289062 C 334.875 342.449219 334.613281 343.617188 334.382812 344.792969 C 334.148438 345.964844 333.941406 347.144531 333.765625 348.328125 C 333.589844 349.511719 333.445312 350.699219 333.328125 351.890625 C 333.210938 353.082031 333.121094 354.277344 333.0625 355.472656 C 333.003906 356.667969 332.972656 357.863281 332.972656 359.0625 L 332.972656 655.84375 C 332.972656 657.042969 333.003906 658.238281 333.0625 659.433594 C 333.121094 660.628906 333.207031 661.824219 333.324219 663.015625 C 333.441406 664.207031 333.589844 665.394531 333.765625 666.578125 C 333.941406 667.765625 334.144531 668.941406 334.378906 670.117188 C 334.609375 671.292969 334.871094 672.460938 335.164062 673.621094 C 335.453125 674.78125 335.773438 675.933594 336.121094 677.082031 C 336.464844 678.226562 336.839844 679.363281 337.246094 680.492188 C 337.648438 681.617188 338.078125 682.734375 338.535156 683.839844 C 338.992188 684.945312 339.476562 686.039062 339.988281 687.121094 C 340.5 688.207031 341.035156 689.273438 341.601562 690.332031 C 342.164062 691.386719 342.753906 692.425781 343.367188 693.453125 C 343.984375 694.480469 344.621094 695.492188 345.285156 696.488281 C 345.949219 697.484375 346.640625 698.460938 347.351562 699.421875 C 348.0625 700.386719 348.800781 701.328125 349.558594 702.253906 C 350.316406 703.179688 351.097656 704.085938 351.898438 704.972656 C 352.703125 705.859375 353.527344 706.726562 354.371094 707.574219 C 355.21875 708.421875 356.085938 709.246094 356.96875 710.050781 C 357.855469 710.851562 358.761719 711.636719 359.683594 712.394531 C 360.609375 713.152344 361.550781 713.890625 362.511719 714.605469 C 363.472656 715.316406 364.449219 716.007812 365.445312 716.671875 C 366.4375 717.335938 367.449219 717.976562 368.472656 718.59375 C 369.5 719.207031 370.539062 719.796875 371.59375 720.363281 C 372.648438 720.925781 373.714844 721.464844 374.796875 721.976562 C 375.878906 722.488281 376.972656 722.972656 378.074219 723.429688 C 379.179688 723.890625 380.296875 724.320312 381.421875 724.722656 C 382.546875 725.128906 383.683594 725.503906 384.828125 725.851562 C 385.972656 726.199219 387.125 726.515625 388.28125 726.808594 C 389.441406 727.097656 390.609375 727.359375 391.78125 727.59375 C 392.953125 727.828125 394.132812 728.03125 395.316406 728.207031 C 396.496094 728.382812 397.683594 728.53125 398.875 728.648438 C 400.0625 728.765625 401.257812 728.851562 402.449219 728.910156 C 403.644531 728.96875 404.839844 729 406.035156 729 C 407.230469 729 408.425781 728.96875 409.621094 728.910156 C 410.816406 728.851562 412.007812 728.765625 413.195312 728.648438 C 414.386719 728.53125 415.574219 728.382812 416.757812 728.207031 C 417.9375 728.03125 419.117188 727.828125 420.289062 727.59375 C 421.460938 727.359375 422.628906 727.097656 423.789062 726.808594 C 424.949219 726.515625 426.101562 726.199219 427.246094 725.851562 C 428.386719 725.503906 429.523438 725.128906 430.648438 724.722656 C 431.773438 724.320312 432.890625 723.890625 433.996094 723.429688 C 435.101562 722.972656 436.191406 722.488281 437.273438 721.976562 C 438.355469 721.464844 439.421875 720.925781 440.476562 720.363281 C 441.53125 719.796875 442.570312 719.207031 443.597656 718.59375 C 444.621094 717.976562 445.632812 717.335938 446.625 716.671875 C 447.621094 716.007812 448.597656 715.316406 449.558594 714.605469 C 450.519531 713.890625 451.460938 713.152344 452.386719 712.394531 C 453.308594 711.636719 454.214844 710.851562 455.101562 710.050781 C 455.988281 709.246094 456.851562 708.421875 457.699219 707.574219 C 458.542969 706.726562 459.367188 705.859375 460.171875 704.972656 C 460.972656 704.085938 461.753906 703.179688 462.511719 702.253906 C 463.273438 701.328125 464.007812 700.386719 464.71875 699.421875 C 465.433594 698.460938 466.121094 697.484375 466.785156 696.488281 C 467.449219 695.492188 468.089844 694.480469 468.703125 693.453125 C 469.316406 692.425781 469.90625 691.386719 470.46875 690.332031 C 471.035156 689.273438 471.570312 688.207031 472.082031 687.121094 C 472.59375 686.039062 473.078125 684.945312 473.535156 683.839844 C 473.992188 682.734375 474.425781 681.617188 474.828125 680.492188 C 475.230469 679.363281 475.605469 678.226562 475.953125 677.082031 C 476.300781 675.933594 476.617188 674.78125 476.90625 673.621094 C 477.199219 672.460938 477.460938 671.292969 477.695312 670.117188 C 477.925781 668.941406 478.132812 667.765625 478.308594 666.578125 C 478.480469 665.394531 478.628906 664.207031 478.746094 663.015625 C 478.863281 661.824219 478.949219 660.628906 479.007812 659.433594 C 479.070312 658.238281 479.097656 657.042969 479.097656 655.84375 L 479.097656 359.039062 C 479.097656 357.839844 479.066406 356.644531 479.007812 355.449219 C 478.949219 354.253906 478.859375 353.0625 478.742188 351.871094 C 478.625 350.679688 478.476562 349.492188 478.300781 348.308594 C 478.125 347.125 477.921875 345.945312 477.6875 344.769531 C 477.453125 343.597656 477.191406 342.429688 476.898438 341.269531 C 476.609375 340.109375 476.289062 338.957031 475.941406 337.808594 C 475.59375 336.664062 475.21875 335.527344 474.816406 334.402344 C 474.410156 333.277344 473.980469 332.160156 473.523438 331.054688 C 473.066406 329.949219 472.582031 328.855469 472.070312 327.773438 C 471.558594 326.691406 471.019531 325.621094 470.457031 324.566406 C 469.890625 323.511719 469.304688 322.472656 468.6875 321.445312 C 468.074219 320.417969 467.433594 319.40625 466.769531 318.414062 C 466.105469 317.417969 465.417969 316.4375 464.703125 315.476562 C 463.992188 314.515625 463.257812 313.574219 462.5 312.648438 C 461.738281 311.722656 460.957031 310.816406 460.15625 309.929688 C 459.351562 309.042969 458.527344 308.179688 457.683594 307.332031 C 456.839844 306.484375 455.972656 305.660156 455.085938 304.855469 C 454.199219 304.054688 453.296875 303.273438 452.371094 302.511719 C 451.449219 301.753906 450.503906 301.019531 449.546875 300.304688 C 448.585938 299.589844 447.609375 298.902344 446.613281 298.238281 C 445.621094 297.574219 444.609375 296.933594 443.585938 296.316406 C 442.558594 295.703125 441.519531 295.113281 440.464844 294.546875 C 439.410156 293.984375 438.34375 293.445312 437.265625 292.933594 C 436.183594 292.421875 435.089844 291.9375 433.988281 291.480469 C 432.882812 291.019531 431.765625 290.589844 430.640625 290.1875 C 429.515625 289.785156 428.382812 289.410156 427.238281 289.0625 C 426.09375 288.714844 424.941406 288.394531 423.78125 288.101562 C 422.625 287.8125 421.457031 287.550781 420.285156 287.316406 C 419.113281 287.082031 417.933594 286.878906 416.753906 286.703125 C 415.570312 286.527344 414.382812 286.378906 413.195312 286.261719 C 412.003906 286.144531 410.8125 286.054688 409.621094 285.996094 C 408.425781 285.9375 407.230469 285.90625 406.035156 285.90625 Z M 444.148438 655.867188 C 444.148438 657.121094 444.089844 658.367188 443.964844 659.613281 C 443.84375 660.855469 443.660156 662.089844 443.417969 663.316406 C 443.171875 664.542969 442.871094 665.757812 442.507812 666.953125 C 442.144531 668.148438 441.726562 669.324219 441.246094 670.480469 C 440.769531 671.636719 440.234375 672.765625 439.648438 673.871094 C 439.058594 674.972656 438.417969 676.042969 437.722656 677.082031 C 437.027344 678.125 436.285156 679.125 435.492188 680.09375 C 434.699219 681.058594 433.863281 681.984375 432.980469 682.871094 C 432.097656 683.753906 431.171875 684.59375 430.207031 685.386719 C 429.242188 686.179688 428.238281 686.925781 427.199219 687.617188 C 426.160156 688.3125 425.09375 688.957031 423.992188 689.546875 C 422.890625 690.136719 421.761719 690.667969 420.605469 691.148438 C 419.453125 691.625 418.277344 692.046875 417.082031 692.410156 C 415.886719 692.773438 414.679688 693.078125 413.453125 693.320312 C 412.226562 693.566406 410.992188 693.746094 409.75 693.871094 C 408.507812 693.992188 407.261719 694.054688 406.011719 694.054688 C 404.761719 694.054688 403.515625 693.992188 402.273438 693.871094 C 401.03125 693.746094 399.796875 693.566406 398.574219 693.320312 C 397.347656 693.078125 396.136719 692.773438 394.941406 692.410156 C 393.746094 692.046875 392.570312 691.625 391.417969 691.148438 C 390.265625 690.667969 389.136719 690.136719 388.035156 689.546875 C 386.933594 688.957031 385.863281 688.3125 384.824219 687.617188 C 383.785156 686.925781 382.785156 686.179688 381.820312 685.386719 C 380.851562 684.59375 379.929688 683.753906 379.046875 682.871094 C 378.160156 681.984375 377.324219 681.058594 376.53125 680.09375 C 375.738281 679.125 374.996094 678.125 374.300781 677.082031 C 373.609375 676.042969 372.96875 674.972656 372.378906 673.871094 C 371.789062 672.765625 371.257812 671.636719 370.777344 670.480469 C 370.300781 669.324219 369.878906 668.148438 369.515625 666.953125 C 369.15625 665.757812 368.851562 664.542969 368.609375 663.316406 C 368.363281 662.089844 368.179688 660.855469 368.058594 659.613281 C 367.9375 658.367188 367.875 657.121094 367.875 655.867188 L 367.875 359.039062 C 367.875 357.789062 367.9375 356.539062 368.058594 355.296875 C 368.179688 354.050781 368.363281 352.816406 368.609375 351.589844 C 368.851562 350.363281 369.15625 349.148438 369.515625 347.953125 C 369.878906 346.757812 370.300781 345.582031 370.777344 344.425781 C 371.257812 343.269531 371.789062 342.140625 372.378906 341.039062 C 372.96875 339.933594 373.609375 338.863281 374.300781 337.824219 C 374.996094 336.785156 375.738281 335.78125 376.53125 334.8125 C 377.324219 333.847656 378.160156 332.921875 379.046875 332.035156 C 379.929688 331.152344 380.851562 330.3125 381.820312 329.519531 C 382.785156 328.726562 383.785156 327.984375 384.824219 327.289062 C 385.863281 326.59375 386.933594 325.949219 388.035156 325.363281 C 389.136719 324.773438 390.265625 324.238281 391.417969 323.757812 C 392.570312 323.28125 393.746094 322.859375 394.941406 322.496094 C 396.136719 322.132812 397.347656 321.832031 398.574219 321.585938 C 399.796875 321.34375 401.03125 321.160156 402.273438 321.035156 C 403.515625 320.914062 404.761719 320.851562 406.011719 320.851562 C 407.261719 320.851562 408.507812 320.914062 409.75 321.035156 C 410.992188 321.160156 412.226562 321.34375 413.453125 321.585938 C 414.679688 321.832031 415.886719 322.132812 417.082031 322.496094 C 418.277344 322.859375 419.453125 323.28125 420.605469 323.757812 C 421.761719 324.238281 422.890625 324.773438 423.992188 325.363281 C 425.09375 325.949219 426.160156 326.59375 427.199219 327.289062 C 428.238281 327.984375 429.242188 328.726562 430.207031 329.519531 C 431.171875 330.3125 432.097656 331.152344 432.980469 332.035156 C 433.863281 332.921875 434.699219 333.847656 435.492188 334.8125 C 436.285156 335.78125 437.027344 336.785156 437.722656 337.824219 C 438.417969 338.863281 439.058594 339.933594 439.648438 341.039062 C 440.234375 342.140625 440.769531 343.269531 441.246094 344.425781 C 441.726562 345.582031 442.144531 346.757812 442.507812 347.953125 C 442.871094 349.148438 443.171875 350.363281 443.417969 351.589844 C 443.660156 352.816406 443.84375 354.050781 443.964844 355.296875 C 444.089844 356.539062 444.148438 357.789062 444.148438 359.039062 Z M 444.148438 655.867188 " fill-opacity="1" fill-rule="evenodd"/><g clip-path="url(#eb3526fa87)"><path fill="#000000" d="M 406.035156 81 C 404.535156 81 403.039062 81.035156 401.542969 81.109375 C 400.046875 81.183594 398.550781 81.292969 397.058594 81.441406 C 395.566406 81.589844 394.082031 81.773438 392.597656 81.992188 C 391.117188 82.210938 389.640625 82.46875 388.171875 82.761719 C 386.699219 83.054688 385.238281 83.382812 383.785156 83.746094 C 382.332031 84.113281 380.886719 84.511719 379.453125 84.949219 C 378.019531 85.382812 376.597656 85.855469 375.183594 86.359375 C 373.773438 86.867188 372.375 87.40625 370.992188 87.980469 C 369.605469 88.554688 368.238281 89.160156 366.882812 89.804688 C 365.527344 90.445312 364.1875 91.121094 362.867188 91.828125 C 361.546875 92.535156 360.242188 93.273438 358.957031 94.046875 C 357.671875 94.816406 356.40625 95.621094 355.160156 96.453125 C 353.914062 97.285156 352.6875 98.148438 351.484375 99.042969 C 350.28125 99.9375 349.097656 100.859375 347.941406 101.8125 C 346.78125 102.765625 345.648438 103.746094 344.535156 104.753906 C 343.425781 105.761719 342.339844 106.792969 341.28125 107.855469 C 340.222656 108.917969 339.1875 110.003906 338.183594 111.117188 C 337.175781 112.226562 336.195312 113.363281 335.246094 114.523438 C 334.296875 115.683594 333.375 116.867188 332.480469 118.070312 C 331.589844 119.277344 330.726562 120.503906 329.894531 121.75 C 329.058594 123 328.257812 124.265625 327.488281 125.554688 C 326.71875 126.839844 325.980469 128.144531 325.273438 129.46875 C 324.566406 130.792969 323.890625 132.132812 323.25 133.488281 C 322.609375 134.84375 322.003906 136.214844 321.429688 137.601562 C 320.855469 138.988281 320.316406 140.390625 319.8125 141.800781 C 319.308594 143.214844 318.835938 144.640625 318.402344 146.074219 C 317.96875 147.511719 317.566406 148.957031 317.203125 150.414062 C 316.839844 151.867188 316.511719 153.332031 316.21875 154.804688 C 315.925781 156.277344 315.671875 157.753906 315.449219 159.238281 C 315.230469 160.722656 315.046875 162.210938 314.902344 163.703125 C 314.753906 165.199219 314.644531 166.695312 314.570312 168.191406 C 314.496094 169.691406 314.460938 171.191406 314.460938 172.691406 C 314.460938 174.191406 314.496094 175.691406 314.570312 177.191406 C 314.644531 178.691406 314.753906 180.1875 314.902344 181.679688 C 315.046875 183.171875 315.230469 184.660156 315.449219 186.144531 C 315.671875 187.628906 315.925781 189.109375 316.21875 190.582031 C 316.511719 192.050781 316.839844 193.515625 317.203125 194.972656 C 317.566406 196.425781 317.96875 197.871094 318.402344 199.308594 C 318.835938 200.746094 319.308594 202.167969 319.8125 203.582031 C 320.316406 204.996094 320.855469 206.394531 321.429688 207.78125 C 322.003906 209.167969 322.609375 210.539062 323.25 211.894531 C 323.890625 213.25 324.566406 214.59375 325.273438 215.914062 C 325.980469 217.238281 326.71875 218.542969 327.488281 219.832031 C 328.257812 221.117188 329.058594 222.386719 329.894531 223.632812 C 330.726562 224.882812 331.589844 226.109375 332.480469 227.3125 C 333.375 228.519531 334.296875 229.699219 335.246094 230.859375 C 336.195312 232.019531 337.175781 233.15625 338.183594 234.269531 C 339.1875 235.378906 340.222656 236.46875 341.28125 237.527344 C 342.339844 238.589844 343.425781 239.625 344.535156 240.632812 C 345.648438 241.640625 346.78125 242.617188 347.941406 243.570312 C 349.097656 244.523438 350.28125 245.445312 351.484375 246.339844 C 352.6875 247.234375 353.914062 248.097656 355.160156 248.929688 C 356.40625 249.765625 357.671875 250.566406 358.957031 251.339844 C 360.242188 252.109375 361.546875 252.851562 362.867188 253.558594 C 364.1875 254.265625 365.527344 254.9375 366.882812 255.582031 C 368.238281 256.222656 369.605469 256.828125 370.992188 257.40625 C 372.375 257.980469 373.773438 258.519531 375.183594 259.023438 C 376.597656 259.53125 378.019531 260 379.453125 260.4375 C 380.886719 260.871094 382.332031 261.269531 383.785156 261.636719 C 385.238281 262 386.699219 262.328125 388.171875 262.621094 C 389.640625 262.914062 391.117188 263.171875 392.597656 263.390625 C 394.082031 263.613281 395.566406 263.796875 397.058594 263.941406 C 398.550781 264.089844 400.046875 264.199219 401.542969 264.273438 C 403.039062 264.347656 404.535156 264.382812 406.035156 264.382812 C 407.535156 264.382812 409.03125 264.347656 410.527344 264.273438 C 412.027344 264.199219 413.519531 264.089844 415.011719 263.941406 C 416.503906 263.796875 417.988281 263.613281 419.472656 263.390625 C 420.957031 263.171875 422.429688 262.914062 423.902344 262.621094 C 425.371094 262.328125 426.832031 262 428.285156 261.636719 C 429.742188 261.269531 431.183594 260.871094 432.617188 260.4375 C 434.054688 260 435.476562 259.53125 436.886719 259.023438 C 438.296875 258.519531 439.695312 257.980469 441.082031 257.40625 C 442.464844 256.828125 443.835938 256.222656 445.191406 255.582031 C 446.542969 254.9375 447.882812 254.265625 449.203125 253.558594 C 450.527344 252.851562 451.828125 252.109375 453.113281 251.339844 C 454.402344 250.566406 455.667969 249.765625 456.914062 248.929688 C 458.160156 248.097656 459.382812 247.234375 460.585938 246.339844 C 461.792969 245.445312 462.972656 244.523438 464.132812 243.570312 C 465.289062 242.617188 466.425781 241.640625 467.535156 240.632812 C 468.644531 239.625 469.730469 238.589844 470.789062 237.527344 C 471.847656 236.46875 472.882812 235.378906 473.890625 234.269531 C 474.894531 233.15625 475.875 232.019531 476.824219 230.859375 C 477.777344 229.699219 478.699219 228.519531 479.589844 227.3125 C 480.484375 226.109375 481.347656 224.882812 482.179688 223.632812 C 483.011719 222.386719 483.8125 221.117188 484.582031 219.832031 C 485.355469 218.542969 486.09375 217.238281 486.796875 215.914062 C 487.503906 214.59375 488.179688 213.25 488.820312 211.894531 C 489.460938 210.539062 490.066406 209.167969 490.640625 207.78125 C 491.214844 206.394531 491.753906 204.996094 492.257812 203.582031 C 492.761719 202.167969 493.234375 200.746094 493.667969 199.308594 C 494.105469 197.871094 494.503906 196.425781 494.867188 194.972656 C 495.230469 193.515625 495.558594 192.050781 495.851562 190.582031 C 496.144531 189.109375 496.402344 187.628906 496.621094 186.144531 C 496.839844 184.660156 497.023438 183.171875 497.171875 181.679688 C 497.316406 180.1875 497.429688 178.691406 497.5 177.191406 C 497.574219 175.691406 497.613281 174.191406 497.613281 172.691406 C 497.613281 171.191406 497.574219 169.691406 497.5 168.191406 C 497.425781 166.695312 497.316406 165.199219 497.167969 163.707031 C 497.023438 162.210938 496.835938 160.722656 496.617188 159.238281 C 496.398438 157.753906 496.140625 156.277344 495.847656 154.804688 C 495.554688 153.332031 495.226562 151.871094 494.863281 150.414062 C 494.5 148.960938 494.097656 147.511719 493.664062 146.078125 C 493.226562 144.640625 492.757812 143.21875 492.253906 141.804688 C 491.746094 140.390625 491.207031 138.992188 490.636719 137.605469 C 490.0625 136.21875 489.453125 134.847656 488.8125 133.492188 C 488.171875 132.136719 487.5 130.796875 486.792969 129.472656 C 486.085938 128.148438 485.347656 126.84375 484.578125 125.558594 C 483.804688 124.269531 483.003906 123.003906 482.171875 121.757812 C 481.339844 120.507812 480.476562 119.28125 479.582031 118.078125 C 478.691406 116.871094 477.769531 115.6875 476.816406 114.53125 C 475.867188 113.371094 474.886719 112.234375 473.882812 111.121094 C 472.875 110.011719 471.84375 108.921875 470.78125 107.863281 C 469.722656 106.800781 468.636719 105.765625 467.527344 104.757812 C 466.417969 103.753906 465.285156 102.773438 464.125 101.820312 C 462.964844 100.867188 461.785156 99.945312 460.582031 99.050781 C 459.378906 98.15625 458.152344 97.292969 456.90625 96.460938 C 455.660156 95.625 454.394531 94.824219 453.109375 94.050781 C 451.824219 93.28125 450.519531 92.542969 449.199219 91.832031 C 447.878906 91.125 446.539062 90.453125 445.183594 89.808594 C 443.832031 89.167969 442.460938 88.558594 441.078125 87.984375 C 439.691406 87.410156 438.292969 86.871094 436.882812 86.367188 C 435.472656 85.859375 434.050781 85.390625 432.617188 84.953125 C 431.183594 84.519531 429.738281 84.117188 428.285156 83.753906 C 426.832031 83.386719 425.371094 83.058594 423.898438 82.765625 C 422.429688 82.472656 420.953125 82.214844 419.472656 81.996094 C 417.988281 81.773438 416.503906 81.589844 415.011719 81.445312 C 413.519531 81.296875 412.027344 81.183594 410.527344 81.113281 C 409.03125 81.039062 407.535156 81 406.035156 81 Z M 406.035156 229.414062 C 404.179688 229.414062 402.332031 229.324219 400.484375 229.140625 C 398.640625 228.960938 396.808594 228.6875 394.988281 228.324219 C 393.167969 227.964844 391.371094 227.511719 389.597656 226.972656 C 387.824219 226.433594 386.078125 225.808594 384.363281 225.097656 C 382.652344 224.386719 380.976562 223.59375 379.339844 222.71875 C 377.707031 221.84375 376.117188 220.890625 374.574219 219.859375 C 373.03125 218.828125 371.542969 217.722656 370.109375 216.542969 C 368.675781 215.367188 367.304688 214.121094 365.992188 212.808594 C 364.683594 211.496094 363.4375 210.121094 362.261719 208.683594 C 361.085938 207.25 359.980469 205.761719 358.949219 204.214844 C 357.921875 202.671875 356.96875 201.082031 356.09375 199.441406 C 355.21875 197.804688 354.425781 196.128906 353.71875 194.414062 C 353.007812 192.699219 352.382812 190.953125 351.84375 189.175781 C 351.308594 187.398438 350.855469 185.597656 350.496094 183.777344 C 350.132812 181.957031 349.863281 180.121094 349.679688 178.273438 C 349.5 176.425781 349.40625 174.570312 349.40625 172.714844 C 349.40625 170.859375 349.5 169.003906 349.679688 167.15625 C 349.863281 165.308594 350.132812 163.476562 350.496094 161.652344 C 350.855469 159.832031 351.308594 158.03125 351.84375 156.257812 C 352.382812 154.480469 353.007812 152.734375 353.71875 151.015625 C 354.425781 149.300781 355.21875 147.625 356.09375 145.988281 C 356.96875 144.347656 357.921875 142.757812 358.949219 141.214844 C 359.980469 139.671875 361.085938 138.179688 362.261719 136.746094 C 363.4375 135.308594 364.683594 133.933594 365.992188 132.621094 C 367.304688 131.308594 368.675781 130.0625 370.109375 128.886719 C 371.542969 127.707031 373.03125 126.601562 374.574219 125.570312 C 376.117188 124.539062 377.707031 123.585938 379.339844 122.710938 C 380.976562 121.835938 382.652344 121.042969 384.363281 120.332031 C 386.078125 119.621094 387.824219 118.996094 389.597656 118.457031 C 391.371094 117.917969 393.167969 117.46875 394.988281 117.105469 C 396.808594 116.742188 398.640625 116.46875 400.484375 116.289062 C 402.332031 116.105469 404.179688 116.015625 406.035156 116.015625 C 407.890625 116.015625 409.742188 116.105469 411.585938 116.289062 C 413.433594 116.46875 415.265625 116.742188 417.082031 117.105469 C 418.902344 117.46875 420.699219 117.917969 422.472656 118.457031 C 424.25 118.996094 425.992188 119.621094 427.707031 120.332031 C 429.417969 121.042969 431.09375 121.835938 432.730469 122.710938 C 434.367188 123.585938 435.953125 124.539062 437.496094 125.570312 C 439.039062 126.601562 440.527344 127.707031 441.960938 128.886719 C 443.394531 130.0625 444.765625 131.308594 446.078125 132.621094 C 447.390625 133.933594 448.632812 135.308594 449.808594 136.746094 C 450.988281 138.179688 452.089844 139.671875 453.121094 141.214844 C 454.152344 142.757812 455.101562 144.347656 455.976562 145.988281 C 456.851562 147.625 457.644531 149.300781 458.351562 151.015625 C 459.0625 152.734375 459.6875 154.480469 460.226562 156.257812 C 460.765625 158.03125 461.214844 159.832031 461.574219 161.652344 C 461.9375 163.476562 462.210938 165.308594 462.390625 167.15625 C 462.574219 169.003906 462.664062 170.859375 462.664062 172.714844 C 462.664062 174.570312 462.570312 176.425781 462.390625 178.273438 C 462.207031 180.121094 461.933594 181.953125 461.570312 183.773438 C 461.210938 185.597656 460.757812 187.394531 460.21875 189.171875 C 459.683594 190.949219 459.058594 192.695312 458.347656 194.410156 C 457.636719 196.125 456.84375 197.800781 455.972656 199.4375 C 455.097656 201.078125 454.144531 202.667969 453.113281 204.210938 C 452.082031 205.753906 450.980469 207.242188 449.804688 208.679688 C 448.625 210.113281 447.382812 211.488281 446.070312 212.800781 C 444.761719 214.113281 443.386719 215.359375 441.953125 216.539062 C 440.519531 217.714844 439.03125 218.820312 437.492188 219.851562 C 435.949219 220.882812 434.359375 221.835938 432.726562 222.714844 C 431.089844 223.589844 429.417969 224.382812 427.703125 225.09375 C 425.988281 225.804688 424.246094 226.429688 422.472656 226.96875 C 420.695312 227.507812 418.902344 227.960938 417.082031 228.320312 C 415.261719 228.683594 413.429688 228.957031 411.585938 229.140625 C 409.738281 229.324219 407.890625 229.414062 406.035156 229.414062 Z M 406.035156 229.414062 " fill-opacity="1" fill-rule="evenodd"/></g></svg>